<?xml version="1.0" encoding="UTF-8" standalone="no"?>
<svg
   xmlns:dc="http://purl.org/dc/elements/1.1/"
   xmlns:cc="http://creativecommons.org/ns#"
   xmlns:rdf="http://www.w3.org/1999/02/22-rdf-syntax-ns#"
   xmlns:svg="http://www.w3.org/2000/svg"
   xmlns="http://www.w3.org/2000/svg"
   xmlns:sodipodi="http://sodipodi.sourceforge.net/DTD/sodipodi-0.dtd"
   xmlns:inkscape="http://www.inkscape.org/namespaces/inkscape"
   version="1.1"
   id="Layer_1"
   x="0px"
   y="0px"
   viewBox="0 0 2251.137 1715.812"
   enable-background="new 0 0 2251.137 1715.812"
   sodipodi:docname="medifast.svg"
   inkscape:version="0.92.3 (2405546, 2018-03-11)"
   inkscape:export-filename="/home/roni/Downloads/medifast5.png"
   inkscape:export-xdpi="2.1456897"
   inkscape:export-ydpi="2.1456897">
  <metadata
     id="metadata13">
    <rdf:RDF>
      <cc:Work
         rdf:about="">
        <dc:format>image/svg+xml</dc:format>
        <dc:type
           rdf:resource="http://purl.org/dc/dcmitype/StillImage" />
        <dc:title></dc:title>
      </cc:Work>
    </rdf:RDF>
  </metadata>
  <defs
     id="defs11" />
  <sodipodi:namedview
     pagecolor="#ffffff"
     bordercolor="#666666"
     borderopacity="1"
     objecttolerance="10"
     gridtolerance="10"
     guidetolerance="10"
     inkscape:pageopacity="0"
     inkscape:pageshadow="2"
     inkscape:window-width="1600"
     inkscape:window-height="837"
     id="namedview9"
     showgrid="false"
     inkscape:zoom="0.27508841"
     inkscape:cx="542.11971"
     inkscape:cy="857.90601"
     inkscape:window-x="0"
     inkscape:window-y="30"
     inkscape:window-maximized="1"
     inkscape:current-layer="Layer_1" />
  <g
     id="g6"
     style="display:inline;fill:#c7ff00;fill-opacity:1"
     transform="translate(54.527924,29.08156)">
    <path
       d="m 1258.438,270.041 c 2.45,-12.183 1.891,-24.643 4.226,-36.801 0.951,-4.952 -3.329,-14.886 -10.205,-8.809 -13.168,11.638 -1.516,21.858 -47.194,145.438 -3.132,8.476 0.507,16.415 -16.172,33.085 -23.241,23.229 -41.262,62.635 -66.614,82.298 -3.949,3.063 -11.881,16.979 -12.719,22.005 -0.052,0.315 0.152,0.765 0,0.959 -11.988,14.942 2.503,30.128 -18.506,44.114 -21.116,14.058 -17.508,19.702 -30.069,35.745 -4.342,5.546 -6.903,11.639 -6.689,18.689 0.314,10.314 -4.3,19.901 -3.943,30.358 1.012,29.621 2.354,17.378 -3.217,63.767 -0.484,4.033 2.131,6.648 3.805,9.733 3.249,5.985 -3.001,3.268 -4.105,22.021 -1.475,25.06 -7.864,41.171 -10.164,116.769 -0.344,11.323 -6.904,15.393 -0.181,40.882 2.205,8.361 5.679,16.547 4.138,25.542 -0.158,0.925 -0.168,2.163 0.318,2.865 4.724,6.831 6.336,30.047 3.547,38.604 -9.826,30.145 -0.933,23.542 -12.7,60.741 -2.094,6.619 -6.269,13.156 -2.676,20.625 0.607,1.262 -0.378,2.443 -0.881,3.639 -9.8,23.268 -22.16,59.115 -16.156,83.485 1.882,7.638 1.149,15.428 3.367,23.006 1.37,4.681 -0.672,9.093 -6.224,11.684 -5.597,2.612 -10.69,5.933 -17.199,6.083 -5.03,0.116 -7.856,2.383 -8.673,8.184 -1.779,12.631 -10.176,30.31 -5.999,75.057 2.047,21.932 0.764,43.461 -6.571,64.401 -5.249,14.984 -7.001,30.914 -12.959,45.768 -0.402,1.002 -22.945,63.063 -26.227,78.108 -4.524,20.736 -7.36,53.927 9.619,66.994 3.239,2.492 8.54,11.685 22.427,19.019 6.862,3.624 12.291,9.654 20.484,11.985 5.916,1.683 5.564,10.833 0.398,14.829 -7.453,5.766 -31.976,8.051 -51.532,-0.482 -8.52,-3.718 -18.045,-5.314 -27.253,-7.225 -11.81,-2.451 -19.689,-10.987 -28.803,-17.624 -2.154,-1.568 -3.766,-4.688 -3.249,-6.822 1.586,-6.553 -0.414,-13.12 2.088,-19.893 9.792,-26.499 18.938,-87.638 17.681,-122.753 -0.942,-26.314 -7.15,-35.746 -0.234,-47.661 4.562,-7.859 -2.17,-15.682 -0.552,-22.908 16.718,-74.618 20.883,-73.786 15.124,-92.922 -2.537,-8.43 -6.635,-29.882 -7.202,-54.481 -0.195,-8.46 -8.327,-20.291 -8.703,-32.468 -7.646,7.819 -9.64,17.216 -12.592,26.084 -4.315,12.963 -0.602,21.402 -12.945,30.23 -2.355,1.684 -3.427,3.705 -4.045,6.298 -4.089,17.14 -11.115,33.15 -19.026,48.793 -10.409,20.581 1.451,56.593 -5.495,83.496 -2.485,9.626 1.498,19.104 -0.957,28.759 -10.454,41.114 -28.663,89.287 -10.78,151.65 3.464,12.081 -12.809,22.594 -19.127,24.885 -22.117,8.021 -14.758,42.241 -31.502,45.096 -5.722,0.975 -11.176,3.425 -16.844,4.847 -19.562,4.907 -23.763,-4.055 -35.578,-10.449 -7.4,-4.005 -10.126,-11.776 12.613,-19.251 1.446,-0.475 3.152,-0.446 4.169,-1.684 9.74,-11.863 21.458,-22.567 21.577,-39.795 0.079,-11.365 15.497,-16.53 14.099,-38.286 -0.939,-14.605 6.367,-20.495 -0.981,-50.134 -3.784,-15.265 -13.284,-63.174 -12.788,-79.584 0.958,-31.703 -8.806,-18.309 -1.599,-55.648 4.364,-22.61 19.109,-74.498 19.412,-102.073 0.102,-9.3 -3.771,-5.847 -12.261,-12.88 -12.183,-10.092 -23.909,1.471 -23.874,-14.467 0.006,-2.914 0.033,-5.968 0.856,-8.717 5.959,-19.898 7.564,-40.86 15.047,-60.406 5.517,-14.41 -2.685,-28.973 3.716,-54.606 5.134,-20.559 2.271,-31.039 7.732,-52.918 3.486,-13.965 8.792,-27.604 8.153,-42.388 -0.082,-1.903 0.165,-4.024 0.952,-5.723 4.855,-10.469 -9.586,-12.471 -3.829,-26.791 6.301,-15.671 2.603,-13.47 0.904,-22.239 -1.06,-5.471 4.307,-10.681 4.842,-16.419 2.423,-25.944 10.976,-50.644 15.499,-76.188 5.792,-32.714 21.998,-59.281 11.804,-90.901 -2.364,-7.331 -3.872,-15.168 -2.971,-21.733 1.145,-8.348 -1.415,-15.686 -1.775,-23.821 -0.277,-6.25 1.485,-12.624 0.372,-18.84 -3.608,-20.144 -0.6,-11.187 7.279,-48.412 1.199,-5.667 2.434,-12.549 -5.549,-15.41 -1.297,-0.465 -1.015,-1.115 -0.755,-2.06 2.814,-10.264 -2.612,-19.142 -5.235,-28.388 -0.868,-3.058 -4.514,-5.342 -7.842,-6.989 -18.934,-9.367 -16.326,-30.004 -8.337,-67.605 2.528,-11.9 -2.297,-16.092 -20.676,-94.57 -3.271,-13.966 -15.725,-29.391 -28.766,-99.716 -1.621,-8.741 -7.582,-26.602 -7.582,-26.602 4.252,-19.118 -2.179,-36.818 -6.411,-55.865 -8.392,4.164 -10.353,11.74 -11.918,17.816 -5.196,20.166 -13.693,39.176 -19.409,59.102 -8.567,29.867 -24.677,56.364 -36.886,84.591 -6.149,14.217 -14.596,26.475 -23.843,38.653 -14.129,18.606 -50.405,82.919 -92.18,120.44 -7.913,7.107 -12.187,12.16 -20.667,41.057 -4.833,16.468 7.562,27.979 -7.821,31.294 -16.655,3.589 -8.284,13.63 -14.546,18.381 -22.877,17.357 -7.131,40.576 -4.925,60.906 0.575,5.298 -0.174,10.386 -0.414,15.519 -1.147,24.555 1.038,49.021 1.453,73.529 0.757,44.676 -1.673,66.813 3.582,92.443 4.435,21.634 -7.804,16.94 -4.434,64.618 0.904,12.787 -9.759,3.297 -8.608,11.305 0.612,4.257 2.997,13.171 0.57,23.974 -8.089,35.999 1.581,49.679 -5.587,66.408 -5.945,13.876 -3.652,14.642 -16.256,58.068 -3.305,11.39 -8.136,22.017 -8.457,34.622 -0.332,13.059 -4.821,26.269 -10.382,38.335 -9.997,21.688 -23.996,78.461 -28.118,91.687 -4.851,15.565 -4.949,31.41 -4.39,47.323 0.276,7.857 4.74,14.775 6.733,22.245 0.814,3.05 0.672,4.87 4.453,5.244 3.686,0.364 5.525,4.315 8.697,6.034 5.114,2.771 -0.997,14.4 -6.382,17.955 -17.439,11.516 -8.521,60.77 -30.422,171.47 -1.817,9.182 2.167,18.386 -0.752,30.624 -3.28,13.757 7.386,21.934 12.188,36.488 2.521,7.641 9.717,12.184 16.836,15.078 8.871,3.607 15.611,10.349 24.161,14.489 6.722,3.255 7.127,11.818 8.824,18.685 0.164,0.662 -0.672,1.906 -1.379,2.397 -31.677,21.981 -49.126,1.512 -77.908,-6.515 -10.607,-2.958 -19.436,-9.092 -27.689,-15.928 -9.693,-8.03 -11.428,-12.291 -7.413,-22.239 14.704,-36.431 0.405,-20.745 8.405,-53.135 3.537,-14.322 -4.447,-73.649 -6.122,-85.593 -1.419,-10.114 -0.659,-20.966 -2.059,-31.34 -1.425,-10.562 -2.815,-21.124 -4.053,-31.709 -0.711,-6.076 -4.374,-11.173 -5.305,-17.425 -3.69,-24.768 3.231,-33.962 -6.517,-36.583 -1.476,-6.019 -1.77,-11.353 2.083,-17.307 6.843,-10.575 2.128,-12.785 4.5,-30.057 0.986,-7.18 1.073,-3.904 -2.622,-30.767 -0.434,-3.152 0.271,-6.767 -3.141,-9.018 -1.679,6.85 -4.585,13.424 -4.662,20.03 -0.206,17.66 -9.041,55.947 3.889,67.079 -0.909,9.764 -2.289,19.343 -9.536,26.884 -1.101,1.146 -1.554,2.597 -1.465,4.423 1.219,25.137 -11.209,79.189 -13.927,132.905 -0.814,16.088 0.67,32.3 1.316,48.447 0.317,7.929 11.173,16.645 7.259,27.58 -3.704,10.346 -0.174,20.616 -0.768,30.886 -0.071,1.221 0.907,2.602 0.611,3.696 -4.648,17.167 -7.926,34.885 -18.761,49.697 -22.264,30.433 -47.992,14.266 -69.705,15.593 -4.049,0.248 -6.505,-1.924 -9.219,-4.479 -2.537,-2.388 -2.51,-6.839 -6.744,-7.828 -1.109,-0.259 -1.761,-1.706 -0.882,-3.2 4.569,-7.761 8.119,-16.429 18.778,-17.992 4.107,-0.602 19.357,-10.554 23.277,-19.287 4.054,-9.033 10.859,-15.748 7.989,-28.491 -6.256,-27.771 11.019,-25.115 2.557,-58.311 -43.442,-170.405 -26.076,-169.084 -40.154,-177.534 -2.903,-1.742 -3.182,-3.434 -2.655,-6.281 2.36,-12.737 2.132,-25.738 3.768,-38.547 2.246,-17.581 -4.039,-15.568 1.084,-47.485 6.958,-43.35 -16.765,-79.813 -10.418,-133.432 1.736,-14.667 9.32,-22.34 0.007,-66.991 -3.169,-15.192 -2.478,-74.529 0.081,-88.498 2.054,-11.211 -2.338,-22.668 1.433,-33.789 0.185,-0.545 0.054,-1.359 -0.235,-1.877 -7.68,-13.768 6.552,-29.943 3.787,-38.019 -0.491,-1.434 -0.648,-3.515 0.044,-4.735 8.095,-14.284 -5.03,-26.045 0.636,-39.671 3.463,-8.328 4.183,-17.862 10.875,-24.772 -0.345,-6.374 2.027,-12.543 1.652,-18.919 -0.384,-6.516 -1.461,-10.983 0.253,-17.713 9.606,-37.719 2.802,-27.974 4.622,-49.401 0.709,-8.341 -0.558,-17.072 -2.027,-25.589 -1.031,-5.978 4.492,-27.811 -4.942,-40.354 -9.743,0.478 -2.059,-1.422 -42.835,120.353 -5.629,16.812 -17.592,40.837 -17.592,40.837 -0.413,11.589 -10.427,17.625 -15.339,26.6 -54.878,100.281 -21.609,76.901 -24.517,150.407 -0.689,17.425 -14.522,0.757 -18.332,16.818 -0.618,2.606 0.223,6.725 -3.91,6.847 -4.303,0.127 -9.332,1.956 -12.669,-2.524 -16.269,-21.842 -31.826,-18.464 -26.742,-28.523 1.502,-2.972 16.729,-37.295 17.004,-69.467 0.167,-19.629 11.605,-28.928 15.032,-72.037 1.454,-18.289 7.085,-35.458 11.748,-52.952 2.698,-10.12 7.874,-19.004 12.733,-27.99 4.281,-7.917 17.962,-45.088 17.962,-45.088 25.127,-33.216 15.306,-106.581 48.116,-188.608 9.33,-23.327 21.4,-30.359 45.357,-40.826 14.116,-6.167 4.429,-10.022 12.743,-11.246 9.917,-1.461 19.569,-4.6 29.729,-4.562 2.962,0.011 5.794,-0.514 8.137,-2.675 0.925,-0.853 2.255,-1.904 3.345,-1.845 10.333,0.558 16.458,-5.977 22.724,-12.729 11.844,-12.763 20.08,5.758 29.221,-9.102 11.78,-19.151 5.939,-34.531 5.522,-40.255 -1.389,-19.078 -7.258,-6.9 -11.824,-30.817 -0.909,-4.761 -1.057,-9.628 -1.906,-14.444 -1.381,-7.837 2.5,-11.481 11.102,-11.199 -10e-4,-40.745 3.444,-53.046 20.429,-68.814 15.014,-13.938 15.159,-13.774 36.287,-13.158 1.602,0.047 3.499,0.419 4.768,-0.268 9.452,-5.121 19.718,-1.66 29.526,-2.919 13.426,-1.724 8.157,5.038 16.368,9.08 19.27,9.486 38.679,38.091 33.808,64.479 -1.818,9.851 -3.747,19.682 -5.73,30.055 2.906,1.692 8.243,-0.566 9.32,4.031 1.037,4.428 0.34,8.728 -2.157,13.064 -4.153,7.212 -5.896,15.741 -11.896,22.006 -1.102,1.151 -1.812,3.314 -3.039,3.607 -14.823,3.543 -3.869,21.743 -25.839,37.621 -4.415,3.191 -19.496,12.694 -17.315,17.03 2.876,5.719 13.063,-4.999 17.547,-3.774 8.108,2.215 14.523,-2.224 20.044,-6.516 32.113,-24.968 57.711,-27.598 74.968,-48.941 24.637,-30.47 27.976,-35.239 39.026,-44.772 34.593,-29.847 15.833,-33.751 65.495,-111.563 37.515,-58.779 42.288,-83.007 48.763,-94.222 6.061,-10.497 -4.473,-23.252 3.488,-33.85 2.271,-3.024 1.748,-14.48 4.586,-18.804 21.611,-32.929 15.584,-20.722 42.11,-44.642 14.534,-13.106 25.265,-5.616 20.803,4.002 -9.626,20.749 -15.207,18.098 -12.076,22.663 4.166,-2.317 4.861,-8.463 10.212,-9.45 3.308,-0.61 5.472,1.477 8.029,2.566 3.842,-3.914 1.625,-10.545 7.945,-9.5 8.169,1.35 13.415,59.11 -8.942,84.078 -9.272,10.355 -1.673,42.108 1.964,56.721 4.389,17.637 10.111,9.733 9.153,20.679 -1.281,14.634 13.099,27.436 19.953,73.861 2.488,16.852 8.889,32.55 16.457,47.707 1.534,3.071 4.893,5.174 6.928,8.063 20.272,28.782 5.259,23.438 27.476,53.138 7.893,10.551 4.136,23.884 20.213,25.001 8.011,0.557 12.321,2.704 13.701,11.548 0.741,4.749 4.284,9.115 5.152,14.618 1.491,9.449 28.562,2.821 34.002,-25.551 2.045,-10.665 6.09,-17.826 0.254,-24.109 -11.749,-12.649 -8.974,-28.309 -15.325,-60.141 -4.14,-20.749 -0.515,-25.204 -1.957,-37.751 -1.92,-16.708 3.122,-13.528 3.67,-22.033 0.181,0.181 0.373,0.34 0.565,0.499 -0.693,0.2 -0.761,-0.012 -0.204,-0.638 -0.285,0.793 -0.844,1.119 -1.674,0.979 l 0.226,0.221 c 1.962,-11.272 20.826,-16.249 28.002,-22.253 0.69,-0.577 1.833,-0.973 2.719,-0.9 13.281,1.107 25.036,-4.799 37.351,-8.082 4.121,-1.099 7.826,0.501 11.331,1.784 4.843,1.774 20.955,10.207 20.955,10.207 21.775,3.373 28.961,25.702 37.795,31.706 13.445,9.138 4.733,20.933 8.873,50.651 1.629,11.693 -9.711,26.035 -6.321,36.49 3.999,12.331 -12.113,17.108 -6.993,26.203 3.049,5.415 -12.433,7.098 -8.81,18.119 0.614,1.868 -0.294,3.26 -1.727,4.102 -4.218,2.477 -4.664,6.658 -5.392,10.858 2.755,1.198 5.885,0.326 8.323,2.364 1.944,1.625 4.428,1.135 6.55,0.349 12.002,-4.445 24.452,-7.823 35.459,-14.684 9.058,-5.646 18.595,-4.91 21.341,-14.443 0.271,-0.942 2,-1.504 3.102,-2.161 5.573,-3.322 10.278,-7.568 14.674,-12.376 28.865,-31.569 30.429,-26.126 44.849,-55.106 4.047,-8.133 8.001,-16.206 13.644,-23.364 0.782,-0.992 1.726,-2.081 1.954,-3.25 4.861,-24.924 25.687,-44.761 39.14,-94.606 5.242,-19.42 20.915,-24.821 18.078,-53.23 -0.91,-9.114 -0.739,-18.197 -0.975,-27.298 -0.266,-10.278 5.115,-12.484 18.698,-22.918 3.886,-2.985 11.345,-3.768 14.262,-0.188 3.621,4.445 12.156,3.881 11.946,11.918 4.009,-0.249 4.038,9.39 10.151,4.102 0.243,-0.21 1.466,0.177 1.715,0.594 3.055,5.121 10,7.758 9.839,14.889 -0.212,9.423 0.151,18.758 1.668,28.109 3.281,20.224 -14.107,26.846 -12.105,77.175 6.094,153.22 0.639,139.833 5.817,160.136 6.427,25.197 -1.604,33.069 5.579,51.86 2.656,6.95 -1.826,19.148 3.437,23.568 2.571,-0.423 2.989,-3.096 4.665,-4.371 -0.018,-0.001 -0.329,0.438 -0.329,0.438 l 0.546,-0.213 c -4.333,-1.558 -3.567,-4.123 -3.567,-25.124 4.989,5.054 -1.028,12.909 7.389,15.916 -1.466,-8.04 -0.263,-15.677 -1.963,-22.556 -3.181,-12.871 0.677,-24.904 2.193,-37.202 1.647,-13.362 8.414,-24.976 14.126,-36.886 8.13,-16.951 21.399,-14.586 29.018,-17.765 21.314,-8.893 40.649,-3.567 58.589,8.954 6.618,4.619 9.275,12.302 11.991,19.692 12.166,33.096 5.97,36.39 12.005,59.131 2.589,9.754 -4.847,4.407 -2.503,13.128 2.545,9.469 0.648,18.62 -2.548,27.443 -1.424,3.929 1.466,4.683 3.166,5.895 2.582,1.84 2.566,-1.322 3.74,-2.547 8.191,-8.545 13.861,-18.589 17.028,-29.845 2.225,-7.909 9.904,-11.277 16.932,-26.952 10.353,-23.096 25.9,-31.566 28.661,-60.772 1.642,-17.368 6.625,-16.079 7.855,-21.379 8.235,-35.468 26.208,-39.063 44.798,-98.671 4.34,-13.915 11.016,-27.06 13.911,-41.477 0.19,-0.944 0.463,-1.974 1.018,-2.728 9.413,-12.793 15.785,-27.592 26.847,-39.37 5.483,-5.838 12.519,-8.845 18.964,-12.763 9.37,-5.698 22.806,4.35 17.9,7.507 -6.52,4.196 2.249,6.283 11.372,19.799 2.622,3.884 6.831,5.796 11.02,7.707 9.244,4.217 8.622,4.96 9.271,15.092 1.721,26.898 -10.006,32.644 -12.955,56.082 -2.711,21.548 -7.305,42.836 -7.464,64.747 -0.072,9.978 -2.002,20.078 -4.209,29.87 -2.869,12.732 -2.433,25.873 -5.604,38.541 -0.674,2.693 -0.182,5.927 0.582,8.689 12.731,46.049 8.147,56.785 15.448,60.813 16.919,-19.722 7.777,-7.027 13.735,-37.235 3.323,-16.85 7.806,-14.531 7.063,-23.928 -3.16,-39.956 24.065,-98.295 73.995,-92.149 35.139,4.325 60.059,19.522 68.898,56.349 0.078,0.324 9.922,53.577 9.922,53.577 -5.067,11.665 3.521,20.971 5.663,31.336 3.167,15.328 12.107,29.044 12.475,46.008 22.224,-5.965 43.859,-9.289 63.513,-20.555 45.27,-25.951 53.79,-17.867 72.514,-36.701 21.684,-21.811 79.385,-44.747 123.763,-78.666 17.794,-13.601 35.819,-15.019 34.784,-59.116 -0.292,-12.44 19.094,-18.617 16.581,-8.962 -0.474,1.82 -1.691,3.461 -2.654,5.137 -3.317,5.779 -3.33,5.772 0.621,13.187 24.936,-6.438 29.971,-27.003 35.335,-16.946 1.813,3.399 5.797,4.214 7.475,7.502 1.856,3.635 -0.484,6.974 -0.614,10.458 -0.132,3.55 5.937,4.126 4.731,7.656 -3.411,9.986 -1.833,21.359 -9.99,30.15 -19.936,21.487 -18.809,3.648 -74.409,48.865 -94.125,76.547 -69.73,52.208 -136.281,99.973 -33.482,24.031 -59.072,38.459 -127.469,64.993 -12.495,4.847 -20.981,14.646 -30.679,23.007 -2.086,1.798 -1.446,4.184 -1.217,6.378 3.945,37.693 15.007,41.069 10.351,84.184 -1.477,13.683 -4.136,27.372 -2.914,41.415 0.452,5.199 -2.338,10.703 -1.557,16.322 0.567,4.084 -7.568,3.114 -2.917,8.216 22.754,24.962 25.981,53.089 35.721,66.25 7.85,10.608 7.754,20.728 14.021,39.206 7.8,22.997 -0.098,17.103 6.636,47.701 13.425,60.994 25.503,83.012 28.095,89.036 4.69,10.898 15.782,54.344 15.782,54.344 10.659,11.595 7.575,27.487 19.492,62.663 2.128,6.28 0.531,20.202 9.767,36.092 40.241,69.235 32.314,205.325 66.503,204.387 8.965,-0.246 18.089,4.885 27.257,5.586 10.775,0.824 21.62,-0.062 32.371,1.219 68.259,8.13 85.896,76.114 -10.855,61.765 -33.131,-4.914 -55.825,0.429 -86.573,1.15 -17.31,0.406 -20.312,-13.273 -15.212,-23.696 16.79,-34.315 -28.39,-97.01 -42.211,-130.088 -6.398,-15.313 -13.249,-5.659 -28.107,-83.156 -2.016,-10.512 -6.092,-10.001 -32.438,-51.676 0,0 -8.747,-31.986 -51.382,-99.727 -4.939,-7.848 -10.579,-15.278 -13.928,-24.004 -1.001,-2.607 -2.354,-3.77 -5.017,-3.182 -1.245,0.275 -2.72,0.53 -3.574,1.339 -1.675,1.586 1.04,1.781 1.136,2.61 0.255,2.193 -1.582,1.092 -2.394,1.005 -10.626,-1.146 -20.27,4.103 -30.623,4.62 -14.288,0.714 3.597,61.548 -0.755,153.776 -1.631,34.578 -7.093,66.138 -6.263,75.484 0.739,8.316 3.378,16.462 1.649,25.029 -0.464,2.3 0.539,5.278 1.74,7.466 9.033,16.454 11.728,93.708 12.054,104.041 1.466,46.477 19,58.879 20.655,85.555 1.746,28.146 -3.315,23.685 -0.555,31.82 2.789,8.217 2.948,26.151 -5.062,30.837 -7.006,4.1 -3.849,14.206 -31.773,15.756 -11.271,0.625 -22.566,-4.017 -31.276,-11.815 -7.418,-6.641 -8.603,-8.612 -3.706,-17.736 5.111,-9.525 9.889,-19.55 19.455,-26.146 3.519,-2.427 6.545,-6.88 4.981,-11.846 -7.325,-23.265 1.217,-44.049 -14.579,-83.052 -38.039,-93.925 -30.002,-79.215 -37.648,-107.418 -1.223,-4.51 -0.609,-9.668 -5.381,-13.096 -1.644,-1.181 -2.103,-4.756 -0.862,-7.347 2.548,-5.318 0.531,-1.166 0.995,-62.242 0.103,-13.545 9.633,-16.036 -9.076,-80.299 -1.711,-5.876 -1.607,-11.938 -3.329,-17.979 -8.234,-28.9 -16.958,-57.664 -24.902,-86.648 -3.488,-12.727 -4.033,-13.071 -17.068,-14.043 -7.36,-0.551 -16.511,-0.735 -19.858,-5.774 -9.721,-14.637 1.198,-40.072 7.854,-56.859 10.632,-26.812 2.135,-36.664 7.089,-50.723 1.469,-4.169 -1.773,-7.83 -1.337,-12.28 2.123,-21.695 5.652,-72.917 18.639,-106.008 5.17,-13.173 1.191,-23.033 -11.462,-29.845 -5.018,-2.702 -11.758,-15.096 -11.008,-20.664 8.202,-60.857 18.823,-59.536 6.127,-120.588 -5.252,-25.255 -4.146,-35.744 -13.425,-53.602 -10.382,-19.981 -6.059,-25.666 -12.988,-81.039 -3.195,-25.535 0.282,-47.047 -4.567,-69.856 -0.213,-1 3.37,-40.129 8.721,-54.11 0,0 12.511,-42.765 26.111,-82.483 3.816,-11.145 4.949,-22.782 7.086,-34.239 0.37,-1.985 0.24,-4.049 -1.813,-5.105 -5.298,-2.725 -10.143,9.898 -13.177,13.695 -14.382,17.998 -20.784,15.647 -26.171,30.817 -11.813,33.265 -19.424,80.845 -41.155,119.389 -23.635,41.921 -20.75,71.336 -30.224,99.771 -3.888,11.669 7.264,17.977 -5.789,39.046 -14.881,24.02 -40.59,80.227 -42.682,110.663 -9.514,138.468 -23.255,109.045 -2.92,201.861 3.492,15.939 9.685,19.54 10.28,38.358 1.232,38.979 27.883,96.877 20.032,126.61 -0.657,2.49 -1.005,5.163 -0.911,7.733 0.692,18.953 -3.276,37.437 -5.445,56.102 -2.069,17.813 -5.924,5.788 -7.276,33.809 -0.996,20.646 -11.609,67.992 -16.33,105.585 -1.257,10.011 0.391,20.118 -1.106,30.182 -0.621,4.175 1.808,8.227 4.492,11.583 9.706,12.134 -7.301,16.073 0.825,37.169 3.165,8.217 -2.653,9.246 -9.235,17.311 -12.033,14.744 -1.615,2.417 -30.263,78.401 -25.447,67.495 -11.336,59.337 -17.062,86.161 -1.38,6.464 1.72,12.042 2.522,18.446 -2.936,2.253 -7.002,-0.477 -10.498,2.475 5.743,6.759 11.494,13.756 17.504,20.524 11.092,12.49 12.578,26.781 1.53,26.717 -28.726,-0.169 -36.218,7.793 -52.219,2.485 -18.932,-6.279 -20.926,3.012 -63.776,-5.322 -4.928,-0.959 -24.571,-7.838 -9.242,-22.536 7.723,-7.405 14.214,-15.976 22.361,-23.018 4.688,-4.052 4.658,-7.813 -0.659,-10.926 -6.584,-3.856 -1.25,-42.831 -12.59,-72.765 -22.72,-59.971 -18.317,-75.058 -38.696,-108.666 -12.508,-20.628 -6.292,-9.91 -9.083,-37.591 -1.271,-12.603 -5.294,-56.606 -9.642,-65.133 -12.226,-23.983 -7.04,-34.475 -13.55,-51.475 -9.311,-24.313 -10.651,-104.69 -9.611,-113.144 2.237,-18.187 -2.107,-36.274 -0.558,-54.429 0.797,-9.345 -15.152,-25.03 1.19,-61.299 5.446,-12.088 2.36,-12.638 6.065,-17.106 12.8,-15.439 -0.02,-30.019 14.958,-52.208 3.358,-4.974 4.037,-10.911 7.911,-16.698 -51.86,-21.874 -44.873,-14.164 -41.712,-36.03 4.553,-31.487 8.011,-63.171 13.803,-94.426 16.305,-87.991 14.543,-50.421 11.708,-77.008 -6.712,-62.939 -1.655,-22.835 -11.675,-74.591 -4.589,-23.703 2.092,-28.379 2.555,-64.597 0.192,-15.006 1.332,-30.018 6.092,-44.721 7.612,-23.515 7.012,-48.109 10.499,-72.302 1.994,-13.834 4.615,-27.577 6.321,-41.453 2.107,-17.129 0.483,-42.26 5.999,-69.694 z m 100.713,1044.601 c -1.306,1.512 -2.045,1.965 -2.083,2.47 -2.113,28.665 -6.863,57.083 -6.997,85.956 -0.277,59.516 9.537,42.739 9.815,75.679 0.042,4.94 1.028,9.585 2.487,14.323 5.04,-2.901 1.802,-23.291 5.421,-38.682 1.276,-5.427 4.569,-9.504 6.26,-14.552 5.443,-16.247 -3.531,-108.304 -6.604,-111.484 -3.633,-3.76 -5.489,-8.665 -8.299,-13.71 z m 2.705,-86.654 c -5.962,16.2 -7.249,18.214 -5.089,19.723 4.902,3.426 3.683,8.316 2.346,12.384 -4.114,12.519 0.612,24.18 2.623,36.118 0.15,0.892 0.85,0.949 1.615,-0.527 -5.377,-18.742 6.67,-21.362 1.013,-35.972 -6.284,-16.231 3.797,-19.205 -2.508,-31.726 z M 1281.692,181.349 c -0.356,-0.399 -0.686,-1.107 -1.072,-1.14 -1.949,-0.162 -3.038,3.577 -0.281,3.109 0.994,-0.168 1.525,-0.883 1.353,-1.969 z"
       id="path2"
       inkscape:connector-curvature="0"
       style="display:inline;opacity:1;fill:#c7ff00;fill-opacity:1" />
    <path
       d="m 902.35,302.092 c -0.071,0.29 -0.141,0.581 -0.212,0.871 -0.675,-0.186 -0.528,-0.401 0.439,-0.648 -10e-4,-0.003 -0.227,-0.223 -0.227,-0.223 z"
       id="path4"
       inkscape:connector-curvature="0"
       style="display:inline;fill:#c7ff00;fill-opacity:1" />
  </g>
  <text
     xml:space="preserve"
     style="font-style:normal;font-variant:normal;font-weight:bold;font-stretch:normal;font-size:39.56934738px;line-height:1.25;font-family:sans-serif;-inkscape-font-specification:'sans-serif Bold';letter-spacing:0px;word-spacing:0px;display:inline;fill:#008000;fill-opacity:1;stroke:none;stroke-width:0.98923373"
     x="-2.6017361"
     y="1036.7822"
     id="text17"
     transform="scale(0.98013682,1.0202657)"><tspan
       sodipodi:role="line"
       id="tspan15"
       x="-2.6017361"
       y="1036.7822"
       style="font-style:normal;font-variant:normal;font-weight:bold;font-stretch:normal;font-size:527.59124756px;font-family:sans-serif;-inkscape-font-specification:'sans-serif Bold';fill:#008000;stroke-width:0.98923373">MediFast</tspan></text>
</svg>
